<?xml version="1.0" encoding="iso-8859-1"?>
<!-- Generator: Adobe Illustrator 16.0.0, SVG Export Plug-In . SVG Version: 6.00 Build 0)  -->
<!DOCTYPE svg PUBLIC "-//W3C//DTD SVG 1.1//EN" "http://www.w3.org/Graphics/SVG/1.1/DTD/svg11.dtd">
<svg version="1.1" id="Capa_1" xmlns="http://www.w3.org/2000/svg" xmlns:xlink="http://www.w3.org/1999/xlink" x="0px" y="0px"
	 width="104.28px" height="104.28px" viewBox="0 0 104.28 104.28" style="enable-background:new 0 0 104.28 104.28;"
	 xml:space="preserve">
<g>
	<path d="M0,63.574c0,12.251,9.98,22.229,22.235,22.229c12.265,0,22.234-9.979,22.234-22.229c0-9.634-6.17-17.835-14.756-20.918
		l1.745-6.928l23.911,29.995h4.554c1.081,11.252,10.584,20.078,22.12,20.078c12.262,0,22.237-9.976,22.237-22.233
		c0-12.26-9.976-22.236-22.237-22.236c-3.881,0-7.542,1.009-10.725,2.775l-5.944-8.68l3.385-14.084H56.404v4.307h6.893l-1.547,6.453
		H32.37l2.344-9.319h7.607v-4.307h-20.08v4.307h8.042l-4.738,18.822c-1.083-0.163-2.177-0.274-3.304-0.274
		C9.98,41.335,0,51.312,0,63.574z M67.769,46.542c-4.343,3.651-7.272,8.918-7.847,14.872h-0.791l4.891-20.353L67.769,46.542z
		 M70.222,50.123l7.738,11.295H64.254C64.792,56.935,66.996,52.962,70.222,50.123z M64.254,65.723h21.867l-12.36-18.038
		c2.484-1.297,5.298-2.04,8.278-2.04c9.887,0,17.929,8.042,17.929,17.929c0,9.883-8.042,17.925-17.929,17.925
		C72.881,81.499,65.322,74.593,64.254,65.723z M37.507,36.41h23.208l-5.376,22.376L37.507,36.41z M4.307,63.574
		c0-9.887,8.045-17.929,17.929-17.929c0.767,0,1.518,0.063,2.257,0.154l-4.339,17.248l4.173,1.054l4.333-17.246
		c6.725,2.585,11.504,9.094,11.504,16.719c0,9.883-8.039,17.925-17.927,17.925C12.352,81.499,4.307,73.457,4.307,63.574z"/>
</g>
<g>
</g>
<g>
</g>
<g>
</g>
<g>
</g>
<g>
</g>
<g>
</g>
<g>
</g>
<g>
</g>
<g>
</g>
<g>
</g>
<g>
</g>
<g>
</g>
<g>
</g>
<g>
</g>
<g>
</g>
</svg>
